<svg xmlns="http://www.w3.org/2000/svg" viewBox="0 0 512 512">
  <defs>
    <linearGradient id="bg" x1="90" y1="48" x2="430" y2="464" gradientUnits="userSpaceOnUse">
      <stop offset="0" stop-color="#fff8fa"/>
      <stop offset="0.58" stop-color="#ffe3ec"/>
      <stop offset="1" stop-color="#f5bfd0"/>
    </linearGradient>
    <linearGradient id="k" x1="160" y1="112" x2="340" y2="382" gradientUnits="userSpaceOnUse">
      <stop offset="0" stop-color="#cf6d89"/>
      <stop offset="1" stop-color="#703b49"/>
    </linearGradient>
  </defs>
  <rect width="512" height="512" rx="112" fill="url(#bg)"/>
  <circle cx="256" cy="256" r="178" fill="#fff9fb" stroke="#e6a6b7" stroke-width="18"/>
  <circle cx="256" cy="256" r="133" fill="none" stroke="#fde8ee" stroke-width="30"/>
  <path d="M170 372c35-56 55-111 61-167 3-28 1-52-5-71 18-7 45-11 66-7-10 29-17 63-21 101l91-100c18 3 35 11 48 24l-95 97 96 116c-18 13-39 20-61 20l-83-105c-7 34-19 68-36 102-22 2-43-1-61-10Z" fill="url(#k)"/>
  <path d="M162 374c32-54 52-109 59-166 3-27 2-50-4-70" fill="none" stroke="#fff" stroke-width="12" stroke-linecap="round" opacity="0.65"/>
</svg>
